<svg width="898" height="596" viewBox="0 0 898 596" fill="none" xmlns="http://www.w3.org/2000/svg">
<path d="M125.488 57.2056L125.488 93.1252L173.381 93.1252L173.381 57.2056L125.488 57.2056Z" fill="#18B7EB"/>
<path d="M125.488 105.098L125.488 141.018L173.381 141.018L173.381 105.098L125.488 105.098Z" fill="#18B7EB"/>
<path d="M77.5937 57.2056L77.5938 69.1788L113.513 69.1788L113.513 57.2056L77.5937 57.2056Z" fill="#18B7EB"/>
<path d="M77.5937 81.152L77.5938 93.1252L113.513 93.1252L113.513 81.152L77.5937 81.152Z" fill="#18B7EB"/>
<path d="M77.5937 105.098L77.5938 117.072L113.513 117.072L113.513 105.098L77.5937 105.098Z" fill="#18B7EB"/>
<path d="M77.5937 129.045L77.5938 141.018L113.513 141.018L113.513 129.045L77.5937 129.045Z" fill="#18B7EB"/>
<path d="M77.5937 152.991L77.5938 164.964L113.513 164.964L113.513 152.991L77.5937 152.991Z" fill="#18B7EB"/>
<path d="M77.5937 176.938L77.5938 188.911L113.513 188.911L113.513 176.938L77.5937 176.938Z" fill="#18B7EB"/>
<path d="M710.838 99.1116C710.838 122.26 692.08 141.018 668.932 141.018H662.945V57.2053H668.932C692.08 57.2053 710.838 75.9634 710.838 99.1116Z" fill="#A1E873"/>
<path d="M615.059 57.2056L615.059 69.1788L650.978 69.1788L650.978 57.2056L615.059 57.2056Z" fill="#A1E873"/>
<path d="M615.059 81.1519L615.059 93.1251L650.978 93.1251L650.978 81.1519L615.059 81.1519Z" fill="#A1E873"/>
<path d="M615.059 105.098L615.059 117.072L650.978 117.072L650.978 105.098L615.059 105.098Z" fill="#A1E873"/>
<path d="M615.059 129.045L615.059 141.018L650.978 141.018L650.978 129.045L615.059 129.045Z" fill="#A1E873"/>
<path d="M615.059 152.991L615.059 164.965L650.978 164.965L650.978 152.991L615.059 152.991Z" fill="#A1E873"/>
<path d="M698.865 188.911H662.945V152.991L698.865 188.911Z" fill="#A1E873"/>
<path d="M615.059 176.938L615.059 188.911L650.978 188.911L650.978 176.938L615.059 176.938Z" fill="#A1E873"/>
<path d="M417.83 188.911H369.938L393.884 105.098L417.83 188.911Z" fill="#FAA6FF"/>
<path d="M459.739 57.2053H447.766V93.125H459.739V57.2053Z" fill="#FAA6FF"/>
<path d="M435.794 57.2053H423.82V93.125H435.794V57.2053Z" fill="#FAA6FF"/>
<path d="M411.848 57.2053H399.875V93.125H411.848V57.2053Z" fill="#FAA6FF"/>
<path d="M387.903 57.2053H375.93V93.125H387.903V57.2053Z" fill="#FAA6FF"/>
<path d="M363.954 57.2053H351.98V93.125H363.954V57.2053Z" fill="#FAA6FF"/>
<path d="M340.008 57.2053H328.035V93.125H340.008V57.2053Z" fill="#FAA6FF"/>
<path d="M231.916 57.2053H195.996V69.1785H231.916V57.2053Z" fill="#A1E873"/>
<path d="M231.916 81.1516H195.996V93.1248H231.916V81.1516Z" fill="#A1E873"/>
<path d="M231.916 105.099H195.996V117.072H231.916V105.099Z" fill="#A1E873"/>
<path d="M231.916 129.045H195.996V141.018H231.916V129.045Z" fill="#A1E873"/>
<path d="M231.916 152.991V164.964H198.045C196.714 161.226 195.996 157.195 195.996 152.991H231.916Z" fill="#A1E873"/>
<path d="M231.918 176.938V188.911C221.288 188.911 211.736 184.295 205.164 176.938H231.918Z" fill="#A1E873"/>
<path d="M303.756 57.2053V152.991C303.756 172.827 287.672 188.911 267.836 188.911V57.2053H303.756Z" fill="#A1E873"/>
<path d="M231.916 57.2053H195.996V69.1785H231.916V57.2053Z" fill="#A1E873"/>
<path d="M231.916 81.1516H195.996V93.1248H231.916V81.1516Z" fill="#A1E873"/>
<path d="M231.916 105.099H195.996V117.072H231.916V105.099Z" fill="#A1E873"/>
<path d="M231.916 129.045H195.996V141.018H231.916V129.045Z" fill="#A1E873"/>
<path d="M195.996 152.991H231.916V164.964H198.045C196.714 161.226 195.996 157.195 195.996 152.991Z" fill="#A1E873"/>
<path d="M205.164 176.938H231.918V188.911C221.288 188.911 211.736 184.295 205.164 176.938Z" fill="#A1E873"/>
<path d="M519.279 57.2058H483.359V69.179H519.279V57.2058Z" fill="#F49837"/>
<path d="M519.279 81.1521H483.359V93.1253H519.279V81.1521Z" fill="#F49837"/>
<path d="M519.279 105.099H483.359V117.072H519.279V105.099Z" fill="#F49837"/>
<path d="M519.279 129.045H483.359V141.018H519.279V129.045Z" fill="#F49837"/>
<path d="M519.279 152.991V164.965H485.408C484.078 161.226 483.359 157.195 483.359 152.991H519.279Z" fill="#F49837"/>
<path d="M519.281 176.938V188.911C508.651 188.911 499.099 184.295 492.527 176.938H519.281Z" fill="#F49837"/>
<path d="M591.119 57.2053V152.991C591.119 172.827 575.035 188.911 555.199 188.911V57.2053H591.119Z" fill="#F49837"/>
<path d="M519.279 57.2058H483.359V69.179H519.279V57.2058Z" fill="#F49837"/>
<path d="M519.279 81.1521H483.359V93.1253H519.279V81.1521Z" fill="#F49837"/>
<path d="M519.279 105.099H483.359V117.072H519.279V105.099Z" fill="#F49837"/>
<path d="M519.279 129.045H483.359V141.018H519.279V129.045Z" fill="#F49837"/>
<path d="M483.359 152.991H519.279V164.965H485.408C484.078 161.226 483.359 157.195 483.359 152.991Z" fill="#F49837"/>
<path d="M492.527 176.938H519.281V188.911C508.651 188.911 499.099 184.295 492.527 176.938Z" fill="#F49837"/>
<path d="M782.676 57.2049L782.676 93.1245L830.569 93.1245L830.569 57.2049L782.676 57.2049Z" fill="#18B7EB"/>
<path d="M782.676 105.097L782.676 141.017L830.569 141.017L830.569 105.097L782.676 105.097Z" fill="#18B7EB"/>
<path d="M734.789 57.2049L734.789 69.1781L770.709 69.1781L770.709 57.2049L734.789 57.2049Z" fill="#18B7EB"/>
<path d="M734.789 81.1513L734.789 93.1245L770.709 93.1245L770.709 81.1513L734.789 81.1513Z" fill="#18B7EB"/>
<path d="M734.789 105.098L734.789 117.072L770.709 117.072L770.709 105.098L734.789 105.098Z" fill="#18B7EB"/>
<path d="M734.789 129.044L734.789 141.017L770.709 141.017L770.709 129.044L734.789 129.044Z" fill="#18B7EB"/>
<path d="M734.789 152.991L734.789 164.964L770.709 164.964L770.709 152.991L734.789 152.991Z" fill="#18B7EB"/>
<path d="M734.789 176.937L734.789 188.911L770.709 188.911L770.709 176.937L734.789 176.937Z" fill="#18B7EB"/>
<path d="M782.676 152.991L782.676 188.911L830.569 188.911L830.569 152.991L782.676 152.991Z" fill="#18B7EB"/>
<path d="M554.858 356.535H506.965L530.911 272.723L554.858 356.535Z" fill="#FAA6FF"/>
<path d="M596.766 224.83H584.793V260.749H596.766V224.83Z" fill="#FAA6FF"/>
<path d="M572.817 224.83H560.844V260.749H572.817V224.83Z" fill="#FAA6FF"/>
<path d="M548.872 224.83H536.898V260.749H548.872V224.83Z" fill="#FAA6FF"/>
<path d="M524.926 224.83H512.953V260.749H524.926V224.83Z" fill="#FAA6FF"/>
<path d="M500.985 224.83H489.012V260.749H500.985V224.83Z" fill="#FAA6FF"/>
<path d="M477.032 224.83H465.059V260.749H477.032V224.83Z" fill="#FAA6FF"/>
<path d="M125.484 224.83V236.803H93.8086C102.256 229.353 113.338 224.83 125.484 224.83Z" fill="#FAA6FF"/>
<path d="M84.0067 248.776H125.487V260.749H79.0977C80.2019 256.505 81.8515 252.488 84.0067 248.776Z" fill="#FAA6FF"/>
<path d="M125.487 272.723H77.5938V284.696H125.487V272.723Z" fill="#FAA6FF"/>
<path d="M125.487 296.669H77.5938V308.642H125.487V296.669Z" fill="#FAA6FF"/>
<path d="M79.0977 320.616H125.487V332.589H84.0067C81.8515 328.877 80.2019 324.859 79.0977 320.616Z" fill="#FAA6FF"/>
<path d="M93.8086 344.562H125.484V356.535C113.338 356.535 102.256 352.012 93.8086 344.562Z" fill="#FAA6FF"/>
<path d="M136.133 356.535H172.052V320.616L136.133 356.535Z" fill="#FAA6FF"/>
<path d="M136.133 224.83H172.052V260.749L136.133 224.83Z" fill="#FAA6FF"/>
<path d="M125.484 224.83V236.803H93.8086C102.256 229.353 113.338 224.83 125.484 224.83Z" fill="#FAA6FF"/>
<path d="M125.487 248.776V260.749H79.0977C80.2019 256.505 81.8515 252.488 84.0067 248.776H125.487Z" fill="#FAA6FF"/>
<path d="M125.487 272.723H77.5938V284.696H125.487V272.723Z" fill="#FAA6FF"/>
<path d="M125.487 296.669H77.5938V308.642H125.487V296.669Z" fill="#FAA6FF"/>
<path d="M125.487 320.616V332.589H84.0067C81.8515 328.877 80.2019 324.859 79.0977 320.616H125.487Z" fill="#FAA6FF"/>
<path d="M125.484 344.562V356.535C113.338 356.535 102.256 352.012 93.8086 344.562H125.484Z" fill="#FAA6FF"/>
<path d="M339.672 356.535H303.753L260.21 260.749L254.769 248.776L249.328 236.803L243.887 224.83H279.806L339.672 356.535Z" fill="#F49837"/>
<path d="M200.346 344.562H236.266L231.916 356.535H195.996L200.346 344.562Z" fill="#F49837"/>
<path d="M244.977 320.616L240.627 332.589H204.707L209.057 320.616H244.977Z" fill="#F49837"/>
<path d="M253.684 296.669L249.334 308.643H213.414L217.764 296.669H253.684Z" fill="#F49837"/>
<path d="M262.395 272.723L258.045 284.696H222.125L226.475 272.723H262.395Z" fill="#F49837"/>
<path d="M235.178 248.776H271.098L266.748 260.749H230.828L235.178 248.776Z" fill="#F49837"/>
<path d="M279.809 224.83L275.459 236.803H239.539L243.889 224.83H279.809Z" fill="#F49837"/>
<path d="M236.267 344.562H200.348" stroke="white" stroke-width="0.133036" stroke-miterlimit="10"/>
<path d="M240.627 332.589H204.707" stroke="white" stroke-width="0.133036" stroke-miterlimit="10"/>
<path d="M249.334 308.642H213.414" stroke="white" stroke-width="0.133036" stroke-miterlimit="10"/>
<path d="M253.677 296.669H217.758" stroke="white" stroke-width="0.133036" stroke-miterlimit="10"/>
<path d="M258.045 284.696H222.125" stroke="white" stroke-width="0.133036" stroke-miterlimit="10"/>
<path d="M262.396 272.723H226.477" stroke="white" stroke-width="0.133036" stroke-miterlimit="10"/>
<path d="M244.978 320.616H209.059" stroke="white" stroke-width="0.133036" stroke-miterlimit="10"/>
<path d="M427.761 343.338C411.091 360.007 384.085 360.007 367.416 343.338L363.105 339.028L423.45 278.683L427.761 282.993C444.417 299.662 444.417 326.682 427.761 343.338Z" fill="#A1E873"/>
<path d="M374.593 301.99L383.214 293.369L357.777 267.933C357.884 278.709 362.061 289.458 370.283 297.68L374.593 301.99Z" fill="#A1E873"/>
<path d="M391.84 284.749L400.461 276.129L366.284 241.952C363.664 245.424 361.668 249.215 360.258 253.167L391.84 284.749Z" fill="#A1E873"/>
<path d="M409.079 267.508L417.7 258.887L386.117 227.304C382.166 228.714 378.375 230.71 374.902 233.331L409.079 267.508Z" fill="#A1E873"/>
<path d="M434.94 241.645L430.63 237.335C422.408 229.113 411.659 224.936 400.883 224.83L426.319 250.266L434.94 241.645Z" fill="#A1E873"/>
<path d="M383.214 293.369L357.777 267.933" stroke="white" stroke-width="0.133036" stroke-miterlimit="10"/>
<path d="M391.835 284.749L360.266 253.167" stroke="white" stroke-width="0.133036" stroke-miterlimit="10"/>
<path d="M400.46 276.129L366.297 241.952" stroke="white" stroke-width="0.133036" stroke-miterlimit="10"/>
<path d="M409.082 267.508L374.918 233.331" stroke="white" stroke-width="0.133036" stroke-miterlimit="10"/>
<path d="M417.694 258.887L386.125 227.304" stroke="white" stroke-width="0.133036" stroke-miterlimit="10"/>
<path d="M426.319 250.266L400.883 224.83" stroke="white" stroke-width="0.133036" stroke-miterlimit="10"/>
<path d="M293.113 392.456L293.113 428.375L341.006 428.375L341.006 392.456L293.113 392.456Z" fill="#18B7EB"/>
<path d="M293.113 440.349L293.113 476.269L341.006 476.269L341.006 440.349L293.113 440.349Z" fill="#18B7EB"/>
<path d="M245.219 392.456L245.219 404.429L281.138 404.429L281.138 392.456L245.219 392.456Z" fill="#18B7EB"/>
<path d="M245.219 416.402L245.219 428.375L281.138 428.375L281.138 416.402L245.219 416.402Z" fill="#18B7EB"/>
<path d="M245.219 440.349L245.219 452.322L281.138 452.322L281.138 440.349L245.219 440.349Z" fill="#18B7EB"/>
<path d="M245.219 464.295L245.219 476.269L281.138 476.269L281.138 464.295L245.219 464.295Z" fill="#18B7EB"/>
<path d="M245.219 488.242L245.219 500.215L281.138 500.215L281.138 488.242L245.219 488.242Z" fill="#18B7EB"/>
<path d="M245.219 512.188L245.219 524.161L281.138 524.161L281.138 512.188L245.219 512.188Z" fill="#18B7EB"/>
<path d="M460.737 434.362C460.737 457.51 441.979 476.268 418.83 476.268H412.844V392.456H418.83C441.979 392.456 460.737 411.214 460.737 434.362Z" fill="#A1E873"/>
<path d="M364.957 392.456L364.957 404.429L400.877 404.429L400.877 392.456L364.957 392.456Z" fill="#A1E873"/>
<path d="M364.957 416.402L364.957 428.375L400.877 428.375L400.877 416.402L364.957 416.402Z" fill="#A1E873"/>
<path d="M364.957 440.349L364.957 452.322L400.877 452.322L400.877 440.349L364.957 440.349Z" fill="#A1E873"/>
<path d="M364.957 464.295L364.957 476.269L400.877 476.269L400.877 464.295L364.957 464.295Z" fill="#A1E873"/>
<path d="M364.957 488.242L364.957 500.215L400.877 500.215L400.877 488.242L364.957 488.242Z" fill="#A1E873"/>
<path d="M448.763 524.161H412.844V488.242L448.763 524.161Z" fill="#A1E873"/>
<path d="M364.957 512.188L364.957 524.161L400.877 524.161L400.877 512.188L364.957 512.188Z" fill="#A1E873"/>
<path d="M592.438 392.456V404.43H560.762C569.209 396.98 580.291 392.456 592.438 392.456Z" fill="#FAA6FF"/>
<path d="M550.96 416.403H592.44V428.376H546.051C547.155 424.132 548.805 420.114 550.96 416.403Z" fill="#FAA6FF"/>
<path d="M592.44 440.349H544.547V452.322H592.44V440.349Z" fill="#FAA6FF"/>
<path d="M592.44 464.295H544.547V476.269H592.44V464.295Z" fill="#FAA6FF"/>
<path d="M546.051 488.242H592.44V500.215H550.96C548.805 496.504 547.155 492.486 546.051 488.242Z" fill="#FAA6FF"/>
<path d="M560.762 512.188H592.438V524.162C580.291 524.162 569.209 519.638 560.762 512.188Z" fill="#FAA6FF"/>
<path d="M603.086 524.162H639.006V488.242L603.086 524.162Z" fill="#FAA6FF"/>
<path d="M603.086 392.456H639.006V428.376L603.086 392.456Z" fill="#FAA6FF"/>
<path d="M592.438 392.456V404.43H560.762C569.209 396.98 580.291 392.456 592.438 392.456Z" fill="#FAA6FF"/>
<path d="M592.44 416.403V428.376H546.051C547.155 424.132 548.805 420.114 550.96 416.403H592.44Z" fill="#FAA6FF"/>
<path d="M592.44 440.349H544.547V452.322H592.44V440.349Z" fill="#FAA6FF"/>
<path d="M592.44 464.295H544.547V476.269H592.44V464.295Z" fill="#FAA6FF"/>
<path d="M592.44 488.242V500.215H550.96C548.805 496.504 547.155 492.486 546.051 488.242H592.44Z" fill="#FAA6FF"/>
<path d="M592.438 512.188V524.162C580.291 524.162 569.209 519.638 560.762 512.188H592.438Z" fill="#FAA6FF"/>
<path d="M221.274 524.161H185.354L141.812 428.376L136.371 416.402L130.929 404.429L125.488 392.456H161.408L221.274 524.161Z" fill="#F49837"/>
<path d="M81.944 512.188H117.864L113.513 524.162H77.5938L81.944 512.188Z" fill="#F49837"/>
<path d="M126.575 488.242L122.224 500.215H86.3047L90.655 488.242H126.575Z" fill="#F49837"/>
<path d="M135.278 464.295L130.927 476.269H95.0078L99.3581 464.295H135.278Z" fill="#F49837"/>
<path d="M144 440.349L139.65 452.322H103.73L108.081 440.349H144Z" fill="#F49837"/>
<path d="M116.776 416.403H152.696L148.345 428.376H112.426L116.776 416.403Z" fill="#F49837"/>
<path d="M161.407 392.456L157.056 404.429H121.137L125.487 392.456H161.407Z" fill="#F49837"/>
<path d="M117.865 512.188H81.9453" stroke="white" stroke-width="0.133036" stroke-miterlimit="10"/>
<path d="M122.224 500.215H86.3047" stroke="white" stroke-width="0.133036" stroke-miterlimit="10"/>
<path d="M130.927 476.269H95.0078" stroke="white" stroke-width="0.133036" stroke-miterlimit="10"/>
<path d="M135.283 464.295H99.3633" stroke="white" stroke-width="0.133036" stroke-miterlimit="10"/>
<path d="M139.65 452.323H103.73" stroke="white" stroke-width="0.133036" stroke-miterlimit="10"/>
<path d="M143.994 440.349H108.074" stroke="white" stroke-width="0.133036" stroke-miterlimit="10"/>
<path d="M126.576 488.242H90.6562" stroke="white" stroke-width="0.133036" stroke-miterlimit="10"/>
<path d="M806.633 524.161H770.714L727.171 428.375L721.73 416.402L716.289 404.429L710.848 392.456H746.767L806.633 524.161Z" fill="#F49837"/>
<path d="M667.307 512.188H703.227L698.877 524.161H662.957L667.307 512.188Z" fill="#F49837"/>
<path d="M711.938 488.242L707.588 500.215H671.668L676.018 488.242H711.938Z" fill="#F49837"/>
<path d="M720.645 464.295L716.295 476.268H680.375L684.725 464.295H720.645Z" fill="#F49837"/>
<path d="M729.356 440.349L725.006 452.322H689.086L693.436 440.349H729.356Z" fill="#F49837"/>
<path d="M702.132 416.402H738.051L733.701 428.375H697.781L702.132 416.402Z" fill="#F49837"/>
<path d="M746.77 392.456L742.42 404.429H706.5L710.85 392.456H746.77Z" fill="#F49837"/>
<path d="M703.228 512.188H667.309" stroke="white" stroke-width="0.133036" stroke-miterlimit="10"/>
<path d="M707.588 500.214H671.668" stroke="white" stroke-width="0.133036" stroke-miterlimit="10"/>
<path d="M716.295 476.268H680.375" stroke="white" stroke-width="0.133036" stroke-miterlimit="10"/>
<path d="M720.638 464.295H684.719" stroke="white" stroke-width="0.133036" stroke-miterlimit="10"/>
<path d="M725.006 452.322H689.086" stroke="white" stroke-width="0.133036" stroke-miterlimit="10"/>
<path d="M729.357 440.349H693.438" stroke="white" stroke-width="0.133036" stroke-miterlimit="10"/>
<path d="M711.939 488.242H676.02" stroke="white" stroke-width="0.133036" stroke-miterlimit="10"/>
<path d="M520.603 392.456H484.684V404.429H520.603V392.456Z" fill="#18B7EB"/>
<path d="M520.603 416.402H484.684V428.376H520.603V416.402Z" fill="#18B7EB"/>
<path d="M520.603 440.349H484.684V452.322H520.603V440.349Z" fill="#18B7EB"/>
<path d="M520.603 464.295H484.684V524.161H520.603V464.295Z" fill="#18B7EB"/>
</svg>
