<svg width="659" height="618" viewBox="0 0 659 618" fill="none" xmlns="http://www.w3.org/2000/svg">
  <style>
    path {
      stroke-dasharray: 1500;
      stroke-dashoffset: 1500;
      animation: draw 3s linear infinite;
      /* For smooth continuous animation */
      stroke-linecap: round;
      stroke-linejoin: round;
    }
    /* Sequential delays for each path */
    path:nth-child(1) { animation-delay: 0s; }
    path:nth-child(2) { animation-delay: 0.3s; }
    path:nth-child(3) { animation-delay: 0.6s; }
    path:nth-child(4) { animation-delay: 0.9s; }
    path:nth-child(5) { animation-delay: 1.2s; }
    path:nth-child(6) { animation-delay: 1.5s; }
    path:nth-child(7) { animation-delay: 1.8s; }
    path:nth-child(8) { animation-delay: 2.1s; }
    path:nth-child(9) { animation-delay: 2.4s; }
    path:nth-child(10) { animation-delay: 2.7s; }
    path:nth-child(11) { animation-delay: 3.0s; }
    path:nth-child(12) { animation-delay: 3.3s; }
    path:nth-child(13) { animation-delay: 3.6s; }
    path:nth-child(14) { animation-delay: 3.9s; }
    path:nth-child(15) { animation-delay: 4.2s; }
    path:nth-child(16) { animation-delay: 4.5s; }
    path:nth-child(17) { animation-delay: 4.8s; }
    path:nth-child(18) { animation-delay: 5.1s; }

    @keyframes draw {
      to {
        stroke-dashoffset: 0;
      }
    }
  </style>

  <!-- Path 1 -->
  <path d="M141.929 109.393C191.802 59.52 260.674 28.7217 336.709 28.7217C412.743 28.7217 481.616 59.52 531.489 109.393C581.362 159.266 612.16 228.138 612.16 304.173C612.16 380.207 581.362 449.08 531.489 498.952C481.616 548.825 412.743 579.624 336.709 579.624C260.674 579.624 191.802 548.825 141.929 498.952C92.0562 449.08 61.2578 380.207 61.2578 304.173C61.2578 228.138 92.0562 159.266 141.929 109.393Z" stroke="#18B7EB" stroke-width="3.76969" stroke-miterlimit="10"/>
  <!-- Path 2 -->
  <path d="M160.211 127.676C205.485 82.4018 267.911 54.5815 336.708 54.5815C405.505 54.5815 467.931 82.4018 513.205 127.676C558.479 172.95 586.299 235.376 586.299 304.173C586.299 372.969 558.479 435.395 513.205 480.669C467.931 525.943 405.505 553.764 336.708 553.764C267.911 553.764 205.485 525.943 160.211 480.669C114.937 435.395 87.1172 372.969 87.1172 304.173C87.1172 235.376 114.937 172.95 160.211 127.676Z" stroke="#18B7EB" stroke-width="3.76969" stroke-miterlimit="10"/>
  <!-- Path 3 -->
  <path d="M178.517 145.997C219.154 105.36 275.172 80.4796 336.693 80.4796C398.215 80.4796 454.232 105.36 494.869 145.997C535.507 186.634 560.387 242.652 560.387 304.173C560.387 365.694 535.507 421.712 494.869 462.349C454.232 502.986 398.215 527.866 336.693 527.866C275.172 527.866 219.154 502.986 178.517 462.349C137.88 421.712 113 365.694 113 304.173C113 242.652 137.88 186.634 178.517 145.997Z" stroke="#18B7EB" stroke-width="3.76969" stroke-miterlimit="10"/>
  <!-- Path 4 -->
  <path d="M196.823 164.279C232.861 128.241 282.395 106.339 336.716 106.339C391.037 106.339 440.571 128.241 476.609 164.279C512.647 200.317 534.549 249.851 534.549 304.172C534.549 358.494 512.647 408.027 476.609 444.065C440.571 480.104 391.037 502.005 336.716 502.005C282.395 502.005 232.861 480.104 196.823 444.065C160.785 408.027 138.883 358.494 138.883 304.172C138.883 249.851 160.785 200.317 196.823 164.279Z" stroke="#18B7EB" stroke-width="3.76969" stroke-miterlimit="10"/>
  <!-- Path 5 -->
  <path d="M215.082 182.562C246.483 151.16 289.608 132.198 336.692 132.198C383.775 132.198 426.901 151.16 458.302 182.562C489.704 213.963 508.665 257.088 508.665 304.172C508.665 351.255 489.704 394.38 458.302 425.782C426.901 457.183 383.775 476.145 336.692 476.145C289.608 476.145 246.483 457.183 215.082 425.782C183.68 394.38 164.719 351.255 164.719 304.172C164.719 257.088 183.68 213.963 215.082 182.562Z" stroke="#18B7EB" stroke-width="3.76969" stroke-miterlimit="10"/>
  <!-- Path 6 -->
  <path d="M233.372 200.846C260.174 174.043 296.853 158.06 336.699 158.06C376.545 158.06 413.224 174.043 440.026 200.846C466.829 227.648 482.812 264.327 482.812 304.173C482.812 344.019 466.829 380.698 440.026 407.5C413.224 434.303 376.545 450.286 336.699 450.286C296.853 450.286 260.174 434.303 233.372 407.5C206.569 380.698 190.586 344.019 190.586 304.173C190.586 264.327 206.569 227.648 233.372 200.846Z" stroke="#18B7EB" stroke-width="3.76969" stroke-miterlimit="10"/>
  <!-- Path 7 -->
  <path d="M251.67 219.129C273.836 196.963 304.068 183.92 336.714 183.92C369.359 183.92 399.555 196.963 421.758 219.129C443.962 241.294 456.967 271.527 456.967 304.173C456.967 336.818 443.924 367.014 421.758 389.217C399.592 411.42 369.359 424.426 336.714 424.426C304.068 424.426 273.873 411.383 251.67 389.217C229.466 367.051 216.461 336.818 216.461 304.173C216.461 271.527 229.504 241.332 251.67 219.129Z" stroke="#18B7EB" stroke-width="3.76969" stroke-miterlimit="10"/>
  <!-- Path 8 -->
  <path d="M269.976 237.45C287.542 219.883 311.329 209.818 336.699 209.818C362.069 209.818 385.893 219.883 403.422 237.45C420.989 255.016 431.054 278.803 431.054 304.173C431.054 329.543 420.989 353.368 403.422 370.897C385.856 388.463 362.069 398.528 336.699 398.528C311.329 398.528 287.505 388.463 269.976 370.897C252.409 353.33 242.344 329.543 242.344 304.173C242.344 278.803 252.409 254.979 269.976 237.45Z" stroke="#18B7EB" stroke-width="3.76969" stroke-miterlimit="10"/>
  <!-- Path 9 -->
  <path d="M288.266 255.732C301.196 242.802 318.574 235.677 336.706 235.677C354.838 235.677 372.217 242.802 385.147 255.732C398.077 268.662 405.201 286.04 405.201 304.173C405.201 322.305 398.077 339.683 385.147 352.613C372.217 365.543 354.838 372.668 336.706 372.668C318.574 372.668 301.196 365.543 288.266 352.613C275.336 339.683 268.211 322.305 268.211 304.173C268.211 286.04 275.336 268.662 288.266 255.732Z" stroke="#18B7EB" stroke-width="3.76969" stroke-miterlimit="10"/>
  <!-- Path 10 -->
  <path d="M366.886 334.33C358.555 342.661 347.661 346.807 336.729 346.807C325.797 346.807 314.902 342.661 306.571 334.33C298.24 325.999 294.094 315.104 294.094 304.172C294.094 293.24 298.24 282.346 306.571 274.015C314.902 265.684 325.797 261.537 336.729 261.537C347.661 261.537 358.555 265.684 366.886 274.015C375.217 282.346 379.364 293.24 379.364 304.172C379.364 315.104 375.217 325.999 366.886 334.33Z" stroke="#18B7EB" stroke-width="3.76969" stroke-miterlimit="10"/>
</svg>