<?xml version="1.0" encoding="UTF-8"?>
<svg id="Layer_1" data-name="Layer 1" xmlns="http://www.w3.org/2000/svg" viewBox="0 0 178 177">
  <polygon points="83.19 11 96.57 11 89.88 34.43 83.19 11" fill="#18B7EB"/>
  <polygon points="63.26 15.39 76.19 11.92 75.79 36.28 63.26 15.39" fill="#18B7EB"/>
  <polygon points="45.15 24.78 56.74 18.09 62.66 41.72 45.15 24.78" fill="#18B7EB"/>
  <polygon points="30.08 38.54 39.55 29.08 51.38 50.37 30.08 38.54" fill="#18B7EB"/>
  <polygon points="19.09 55.73 25.79 44.14 42.73 61.65 19.09 55.73" fill="#18B7EB"/>
  <polygon points="12.93 75.18 16.39 62.25 37.29 74.78 12.93 75.18" fill="#18B7EB"/>
  <polygon points="12.01 95.57 12.01 82.18 35.43 88.87 12.01 95.57" fill="#18B7EB"/>
  <polygon points="16.39 115.49 12.93 102.56 37.29 102.96 16.39 115.49" fill="#18B7EB"/>
  <polygon points="25.79 133.61 19.09 122.01 42.73 116.1 25.79 133.61" fill="#18B7EB"/>
  <polygon points="39.55 148.67 30.08 139.2 51.38 127.37 39.55 148.67" fill="#18B7EB"/>
  <polygon points="56.74 159.66 45.15 152.97 62.66 136.02 56.74 159.66" fill="#18B7EB"/>
  <polygon points="76.19 165.83 63.26 162.36 75.79 141.46 76.19 165.83" fill="#18B7EB"/>
  <polygon points="96.57 166.75 83.19 166.75 89.88 143.32 96.57 166.75" fill="#18B7EB"/>
  <polygon points="116.5 162.36 103.57 165.83 103.97 141.46 116.5 162.36" fill="#18B7EB"/>
  <polygon points="134.61 152.97 123.02 159.66 117.1 136.02 134.61 152.97" fill="#18B7EB"/>
  <polygon points="149.68 139.2 140.21 148.67 128.38 127.37 149.68 139.2" fill="#18B7EB"/>
  <polygon points="160.67 122.01 153.97 133.61 137.03 116.1 160.67 122.01" fill="#18B7EB"/>
  <polygon points="166.83 102.56 163.37 115.49 142.47 102.96 166.83 102.56" fill="#18B7EB"/>
  <polygon points="167.75 82.18 167.75 95.57 144.33 88.87 167.75 82.18" fill="#18B7EB"/>
  <polygon points="163.37 62.25 166.83 75.18 142.47 74.78 163.37 62.25" fill="#18B7EB"/>
  <polygon points="153.97 44.14 160.67 55.73 137.03 61.65 153.97 44.14" fill="#18B7EB"/>
  <polygon points="140.21 29.08 149.68 38.54 128.38 50.37 140.21 29.08" fill="#18B7EB"/>
  <polygon points="123.02 18.09 134.61 24.78 117.1 41.72 123.02 18.09" fill="#18B7EB"/>
  <polygon points="103.57 11.92 116.5 15.39 103.97 36.28 103.57 11.92" fill="#18B7EB"/>
</svg>