<?xml version="1.0" encoding="UTF-8"?>
<svg id="Layer_1" data-name="Layer 1" xmlns="http://www.w3.org/2000/svg" viewBox="0 0 235 113">
  <polygon points="145 55.81 117.56 55.81 131.28 7.8 145 55.81"/>
  <polygon points="172.67 55.81 145.23 55.81 158.95 7.8 172.67 55.81"/>
  <polygon points="200.33 55.81 172.9 55.81 186.61 7.8 200.33 55.81"/>
  <polygon points="228 55.81 200.56 55.81 214.28 7.8 228 55.81"/>
  <polygon points="34.33 55.81 6.89 55.81 20.61 7.8 34.33 55.81"/>
  <polygon points="62 55.81 34.56 55.81 48.28 7.8 62 55.81"/>
  <polygon points="89.66 55.81 62.23 55.81 75.95 7.8 89.66 55.81"/>
  <polygon points="117.33 55.81 89.89 55.81 103.61 7.8 117.33 55.81"/>
  <polygon points="145 102.2 117.56 102.2 131.28 54.19 145 102.2"/>
  <polygon points="172.67 102.2 145.23 102.2 158.95 54.19 172.67 102.2"/>
  <polygon points="200.33 102.2 172.9 102.2 186.61 54.19 200.33 102.2"/>
  <polygon points="228 102.2 200.56 102.2 214.28 54.19 228 102.2"/>
  <polygon points="34.33 102.2 6.89 102.2 20.61 54.19 34.33 102.2"/>
  <polygon points="62 102.2 34.56 102.2 48.28 54.19 62 102.2"/>
  <polygon points="89.66 102.2 62.23 102.2 75.95 54.19 89.66 102.2"/>
  <polygon points="117.33 102.2 89.89 102.2 103.61 54.19 117.33 102.2"/>
</svg>