<?xml version="1.0" encoding="UTF-8"?>
<svg id="Layer_1" data-name="Layer 1" xmlns="http://www.w3.org/2000/svg" viewBox="0 0 171 166">
  <polygon points="156.63 25.02 146 39.5 156.63 53.98 84.62 34 12.62 53.98 23.25 39.5 12.62 25.02 85.32 44.98 156.63 25.02"/>
  <polygon points="156.63 43.02 146 57.5 156.63 71.98 84.62 52 12.62 71.98 23.25 57.5 12.62 43.02 85.32 62.98 156.63 43.02"/>
  <polygon points="156.63 61.02 146 75.5 156.63 89.98 84.62 70 12.62 89.98 23.25 75.5 12.62 61.02 85.32 80.98 156.63 61.02"/>
  <polygon points="156.63 79.02 146 93.5 156.63 107.98 84.62 88 12.62 107.98 23.25 93.5 12.62 79.02 85.32 98.98 156.63 79.02"/>
  <polygon points="156.63 97.02 146 111.5 156.63 125.98 84.62 106 12.62 125.98 23.25 111.5 12.62 97.02 85.32 116.98 156.63 97.02"/>
  <polygon points="156.63 115.02 146 129.5 156.63 143.98 84.62 124 12.62 143.98 23.25 129.5 12.62 115.02 85.32 134.98 156.63 115.02"/>
</svg>