<?xml version="1.0" encoding="UTF-8"?>
<svg id="Layer_1" data-name="Layer 1" xmlns="http://www.w3.org/2000/svg" viewBox="0 0 447 129">
  <rect x="61.53" y="-37.05" width="8.8" height="105.16" transform="translate(50.4 81.46) rotate(-90)"/>
  <rect x="61.53" y="-19.44" width="8.8" height="105.16" transform="translate(32.79 99.07) rotate(-90)"/>
  <rect x="61.53" y="-1.83" width="8.8" height="105.16" transform="translate(15.18 116.68) rotate(-90)"/>
  <rect x="61.53" y="15.78" width="8.8" height="105.16" transform="translate(-2.43 134.29) rotate(-90)"/>
  <rect x="61.53" y="33.39" width="8.8" height="105.16" transform="translate(-20.04 151.9) rotate(-90)"/>
  <rect x="61.53" y="50.99" width="8.8" height="105.16" transform="translate(-37.65 169.51) rotate(-90)"/>
  <rect x="166.69" y="-32.16" width="8.8" height="105.16" transform="translate(150.67 191.52) rotate(-90)"/>
  <rect x="166.69" y="-14.55" width="8.8" height="105.16" transform="translate(133.06 209.13) rotate(-90)"/>
  <rect x="166.69" y="3.06" width="8.8" height="105.16" transform="translate(115.45 226.73) rotate(-90)"/>
  <rect x="166.69" y="20.67" width="8.8" height="105.16" transform="translate(97.84 244.34) rotate(-90)"/>
  <rect x="166.69" y="38.28" width="8.8" height="105.16" transform="translate(80.23 261.95) rotate(-90)"/>
  <rect x="166.69" y="55.89" width="8.8" height="105.16" transform="translate(62.63 279.56) rotate(-90)"/>
  <rect x="271.85" y="-37.05" width="8.8" height="105.16" transform="translate(260.72 291.79) rotate(-90)"/>
  <rect x="271.85" y="-19.44" width="8.8" height="105.16" transform="translate(243.11 309.4) rotate(-90)"/>
  <rect x="271.85" y="-1.83" width="8.8" height="105.16" transform="translate(225.51 327.01) rotate(-90)"/>
  <rect x="271.85" y="15.78" width="8.8" height="105.16" transform="translate(207.9 344.61) rotate(-90)"/>
  <rect x="271.85" y="33.39" width="8.8" height="105.16" transform="translate(190.29 362.22) rotate(-90)"/>
  <rect x="271.85" y="50.99" width="8.8" height="105.16" transform="translate(172.68 379.83) rotate(-90)"/>
  <rect x="377.02" y="-32.16" width="8.8" height="105.16" transform="translate(360.99 401.84) rotate(-90)"/>
  <rect x="377.02" y="-14.55" width="8.8" height="105.16" transform="translate(343.39 419.45) rotate(-90)"/>
  <rect x="377.02" y="3.06" width="8.8" height="105.16" transform="translate(325.78 437.06) rotate(-90)"/>
  <rect x="377.02" y="20.67" width="8.8" height="105.16" transform="translate(308.17 454.67) rotate(-90)"/>
  <rect x="377.02" y="38.28" width="8.8" height="105.16" transform="translate(290.56 472.28) rotate(-90)"/>
  <rect x="377.02" y="55.89" width="8.8" height="105.16" transform="translate(272.95 489.89) rotate(-90)"/>
</svg>