<?xml version="1.0" encoding="UTF-8"?>
<svg id="Layer_1" data-name="Layer 1" xmlns="http://www.w3.org/2000/svg" viewBox="0 0 195 166">
  <path d="m168.89,38.91v9c-16,9-35,14-53,9-12-4-21-10-31-16l-9-3c-18-4-35,1-50,10v-9c25-16,58-14,80,5,20,10,44,7,63-5h0Z"/>
  <path d="m168.89,56.91v9c-16,9-35,14-53,9-12-4-21-10-31-16l-9-3c-18-4-35,1-50,10v-9c25-16,58-14,80,5,20,10,44,7,63-5h0Z"/>
  <path d="m168.89,74.91v9c-16,9-35,14-53,9-12-4-21-10-31-16l-9-3c-18-4-35,1-50,10v-9c25-16,58-14,80,5,20,10,44,7,63-5h0Z"/>
  <path d="m168.89,92.91v9c-16,9-35,14-53,9-12-4-21-10-31-16l-9-3c-18-4-35,1-50,10v-9c25-16,58-14,80,5,20,10,44,7,63-5h0Z"/>
  <path d="m168.89,110.91v9c-16,9-35,14-53,9-12-4-21-10-31-16l-9-3c-18-4-35,1-50,10v-9c25-16,58-14,80,5,20,10,44,7,63-5h0Z"/>
  <path d="m168.89,128.91v9c-16,9-35,14-53,9-12-4-21-10-31-16l-9-3c-18-4-35,1-50,10v-9c25-16,58-14,80,5,20,10,44,7,63-5h0Z"/>
</svg>